# xmcd
#
# Track frame offsets:
#	150
#	23822
#	53942
#	82354
#	111592
#	138302
#	163330
#	184825
#	212653
#	220503
#	241603
#	268708
#	293865
#
# Disc length: 4385 seconds
#
# Revision: 1
# Processed by: cddbd v1.5.1PL0 Copyright (c) Steve Scherf et al.
# Submitted via: CDex 1.50Beta5
#
DISCID=c6111f0d
DTITLE=globe - 8 Years〜Many Classic Moments〜
DYEAR=2002
DGENRE=Rock
TTITLE0=Feel Like dance(ORIGINAL MIX)
TTITLE1=DEPARTURES(RADIO EDIT)
TTITLE2=is this love(STRAIGHT RUN)
TTITLE3=FACE(STRAIGHT RUN)
TTITLE4=FACES PLACES(STRAIGHT RUN)
TTITLE5=Love again(STRAIGHT RUN)
TTITLE6=wanna Be A Dreammaker(STRAIGHT RUN)
TTITLE7=still growin up(Single Edit)
TTITLE8=DON’T LOOK BACK(Album Edit)
TTITLE9=try this shoot(Original Version)
TTITLE10=Many Classic Moments(Original Mix)
TTITLE11=winter comes around again(TK Mix)
TTITLE12=seize the light(DARK ANGEL Version)
EXTD=
EXTT0=
EXTT1=
EXTT2=
EXTT3=
EXTT4=
EXTT5=
EXTT6=
EXTT7=
EXTT8=
EXTT9=
EXTT10=
EXTT11=
EXTT12=
PLAYORDER=
